<svg xmlns="http://www.w3.org/2000/svg">
    <symbol id="phone" width="25" height="25" viewBox="0 0 25 25" fill="none">
        <path
            d="M5.91953 1.49415C5.53477 1.4629 5.10703 1.57423 4.7125 1.85157C4.36485 2.09376 3.61485 2.68946 2.91367 3.36329C2.56406 3.69923 2.23008 4.04884 1.97227 4.39259C1.7125 4.73634 1.48594 5.05079 1.49961 5.50782C1.51328 5.91798 1.5543 7.13087 2.42735 8.99024C3.30039 10.8477 4.99375 13.3965 8.29649 16.7012C11.6012 20.0059 14.15 21.6992 16.0074 22.5723C17.8648 23.4453 19.0797 23.4863 19.4898 23.5C19.9449 23.5137 20.2594 23.2871 20.6031 23.0274C20.9469 22.7676 21.2965 22.4356 21.6324 22.0859C22.3043 21.3848 22.9 20.6348 23.1422 20.2871C23.6949 19.5 23.6031 18.5703 22.9879 18.1387C22.6012 17.8672 19.0445 15.5 18.5094 15.1719C17.9664 14.8399 17.3414 14.9902 16.7828 15.2852C16.3434 15.5176 15.1539 16.1992 14.8141 16.3945C14.5582 16.2324 13.5875 15.5859 11.4996 13.4981C9.40977 11.4102 8.76524 10.4395 8.60313 10.1836C8.79844 9.84376 9.47813 8.66017 9.7125 8.2129C10.0055 7.65626 10.1695 7.0254 9.81992 6.47853C9.67344 6.2461 9.00742 5.23243 8.33555 4.21485C7.66172 3.19728 7.02305 2.23243 6.85703 2.00196V2.00001C6.64024 1.70118 6.30235 1.5254 5.91953 1.49415ZM5.82774 2.51564C5.96446 2.53321 6.04649 2.5879 6.04649 2.5879C6.12656 2.69923 6.82774 3.75001 7.49961 4.76564C8.17149 5.78321 8.85703 6.82618 8.97617 7.01564C8.99571 7.04493 9.02305 7.37696 8.82774 7.7461V7.74806C8.60703 8.16798 7.57774 9.96681 7.57774 9.96681L7.43516 10.2188L7.58164 10.4688C7.58164 10.4688 8.34922 11.7637 10.7906 14.2051C13.234 16.6465 14.5289 17.416 14.5289 17.416L14.7789 17.5625L15.0309 17.4199C15.0309 17.4199 16.8258 16.3926 17.2496 16.1699C17.6188 15.9766 17.9508 16.002 17.9898 16.0254C18.3356 16.2383 22.1773 18.791 22.4137 18.957C22.4215 18.9629 22.6305 19.2793 22.3258 19.7129H22.3238C22.1402 19.9766 21.5387 20.7402 20.9117 21.3926C20.5973 21.7188 20.275 22.0234 20.0016 22.2285C19.7281 22.4336 19.484 22.4981 19.5231 22.5C19.0973 22.4863 18.1578 22.4766 16.4332 21.666C14.7086 20.8574 12.2477 19.2383 9.00352 15.9922C5.76133 12.75 4.14219 10.2891 3.33164 8.56251C2.52305 6.8379 2.51328 5.89845 2.49961 5.47462C2.50156 5.51368 2.56602 5.26759 2.7711 4.99415C2.97617 4.72071 3.27891 4.39649 3.60508 4.08204C4.25938 3.45509 5.0211 2.85353 5.28477 2.66993V2.67189C5.50156 2.51954 5.69102 2.50001 5.82774 2.51564Z"
            fill="url(#paint0_linear_177_1726)" />
        <defs>
            <linearGradient id="paint0_linear_177_1726" x1="12.5034" y1="1.48904" x2="12.5034"
                y2="23.5006" gradientUnits="userSpaceOnUse">
                <stop stop-color="#4ABCEC" />
                <stop offset="1" stop-color="#4A8BEC" />
            </linearGradient>
        </defs>
        <symbol id="phone-mobile" width="37" height="35" viewBox="0 0 37 35" fill="none">
            <path
                d="M8.7611 2.0918C8.19165 2.04805 7.55861 2.20391 6.9747 2.5922C6.46017 2.93126 5.35017 3.76524 4.31243 4.7086C3.79501 5.17891 3.30071 5.66837 2.91915 6.14962C2.5347 6.63087 2.19939 7.0711 2.21962 7.71095C2.23986 8.28516 2.30056 9.98321 3.59267 12.5863C4.88478 15.1867 7.39095 18.7551 12.279 23.3816C17.1699 28.0082 20.9422 30.3789 23.6912 31.6012C26.4402 32.8234 28.2381 32.8809 28.8452 32.9C29.5187 32.9191 29.9841 32.602 30.4928 32.2383C31.0016 31.8746 31.519 31.4098 32.0162 30.9203C33.0106 29.9387 33.8922 28.8887 34.2506 28.402C35.0687 27.3 34.9328 25.9984 34.0223 25.3941C33.4499 25.0141 28.1861 21.7 27.3941 21.2406C26.5905 20.7758 25.6655 20.9863 24.8388 21.3992C24.1884 21.7246 22.428 22.6789 21.925 22.9524C21.5463 22.7254 20.1097 21.8203 17.0196 18.8973C13.9267 15.9742 12.9727 14.6152 12.7328 14.257C13.0219 13.7813 14.0278 12.1242 14.3747 11.4981C14.8083 10.7188 15.0511 9.83555 14.5337 9.06993C14.3169 8.74454 13.3312 7.3254 12.3368 5.90079C11.3395 4.47618 10.3943 3.1254 10.1486 2.80274V2.80001C9.82774 2.38165 9.32767 2.13555 8.7611 2.0918ZM8.62525 3.52188C8.82759 3.54649 8.949 3.62305 8.949 3.62305C9.06751 3.77891 10.1052 5.25001 11.0996 6.67188C12.094 8.09649 13.1086 9.55665 13.2849 9.82188C13.3138 9.8629 13.3543 10.3277 13.0652 10.8445V10.8473C12.7386 11.4352 11.2152 13.9535 11.2152 13.9535L11.0042 14.3063L11.221 14.6563C11.221 14.6563 12.357 16.4691 15.9703 19.8871C19.5865 23.3051 21.503 24.3824 21.503 24.3824L21.873 24.5875L22.2459 24.3879C22.2459 24.3879 24.9024 22.9496 25.5296 22.6379C26.0759 22.3672 26.5674 22.4027 26.6252 22.4356C27.1368 22.7336 32.8227 26.3074 33.1724 26.5399C33.184 26.5481 33.4933 26.991 33.0424 27.5981H33.0395C32.7677 27.9672 31.8774 29.0363 30.9495 29.9496C30.4842 30.4063 30.0072 30.8328 29.6025 31.1199C29.1978 31.407 28.8365 31.4973 28.8943 31.5C28.2642 31.4809 26.8738 31.4672 24.3213 30.3324C21.7689 29.2004 18.1267 26.9336 13.3254 22.3891C8.52696 17.85 6.13064 14.4047 4.93103 11.9875C3.73431 9.57305 3.71986 8.25782 3.69962 7.66446C3.70251 7.71915 3.7979 7.37462 4.10142 6.99181C4.40493 6.60899 4.85298 6.15509 5.33571 5.71485C6.30407 4.83712 7.43142 3.99493 7.82165 3.7379V3.74063C8.14251 3.52735 8.4229 3.50001 8.62525 3.52188Z"
                fill="url(#paint0_linear_436_116)" />
            <defs>
                <linearGradient id="paint0_linear_436_116" x1="18.5053" y1="2.08466" x2="18.5053"
                    y2="32.9008" gradientUnits="userSpaceOnUse">
                    <stop stop-color="#4ABCEC" />
                    <stop offset="1" stop-color="#4A8BEC" />
                </linearGradient>
            </defs>
        </symbol>
    </symbol>
    <symbol id="headphones" width="40" height="40" viewBox="0 0 40 40" fill="none">
        <path
            d="M20 0.800003C13.1438 0.800003 7.39375 5.625 5.95 12.05C6.09688 12.0344 6.25 12 6.4 12C6.80938 12 7.20312 12.0844 7.575 12.2C8.93125 6.59063 13.9781 2.4 20 2.4C26.0188 2.4 31.0688 6.59063 32.425 12.2C32.7969 12.0844 33.1875 12 33.6 12C33.75 12 33.9031 12.0344 34.05 12.05C32.6063 5.625 26.8531 0.800003 20 0.800003ZM6.4 13.6C5.07812 13.6 4 14.6781 4 16V28C4 29.3219 5.07812 30.4 6.4 30.4C7.72188 30.4 8.8 29.3219 8.8 28V16C8.8 14.6781 7.72188 13.6 6.4 13.6ZM33.6 13.6C32.2781 13.6 31.2 14.6781 31.2 16V28C31.2 29.3219 32.2781 30.4 33.6 30.4C34.9219 30.4 36 29.3219 36 28V16C36 14.6781 34.9219 13.6 33.6 13.6ZM2.4 16.1C0.95625 17.2594 0 19.4344 0 22C0 24.5656 0.95625 26.7406 2.4 27.9V16.1ZM37.6 16.1V27.9C39.0438 26.7406 40 24.5656 40 22C40 19.4344 39.0438 17.2594 37.6 16.1ZM32.475 31.825C31.7688 33.9969 29.9344 35.2 27.2 35.2H26.325C26.3781 35.4594 26.4 35.725 26.4 36C26.4 36.275 26.3781 36.5406 26.325 36.8H27.2C30.7938 36.8 33.2812 34.9938 34.1 31.95C33.9313 31.9719 33.7719 32 33.6 32C33.2062 32 32.8344 31.9313 32.475 31.825ZM18.4 33.6C17.0781 33.6 16 34.6781 16 36C16 37.3219 17.0781 38.4 18.4 38.4H22.4C23.7219 38.4 24.8 37.3219 24.8 36C24.8 34.6781 23.7219 33.6 22.4 33.6H18.4Z"
            fill="white" />
    </symbol>
    <symbol id="person" width="50" height="50" viewBox="0 0 50 50" fill="none">
        <path
            d="M27.0938 4C17.2227 4 13.6641 11.5664 16.5 17.9688C16.1836 18.1797 15.5508 18.8984 15.6562 20.1562C15.9727 22.4688 16.9141 23.125 17.4375 23.125C17.6484 25.3281 19.1094 27.832 19.8438 28.25C19.8438 29.8242 19.9609 29.5078 19.75 31.1875C19.5625 31.7656 19.2266 32.2773 18.7812 32.7188L24.0938 35H25.9062L31.2188 32.875C30.7344 32.4219 30.3633 31.8867 30.1562 31.2812C30.0508 29.6016 30.0312 29.8438 30.0312 28.375C30.7656 27.9531 32.1523 25.3203 32.4688 23.2188C33.0977 23.2188 34.0391 22.5898 34.25 20.2812C34.3555 19.0195 33.9336 18.168 33.4062 18.0625C35.2969 15.6484 34.9805 6.09375 28.1562 6.09375L27.0938 4ZM16.8438 34.0625C12.4727 36.3672 5 37.4375 5 45C5 45 5 46 6 46H22L24 39L23.0938 36.75L16.8438 34.0625ZM33.25 34.2188L26.9062 36.75L26 39L28 46H44C45.0312 46 45 45 45 45C45 37.5234 37.6758 36.4375 33.25 34.2188Z"
            fill="url(#paint0_linear_177_1780)" />
        <defs>
            <linearGradient id="paint0_linear_177_1780" x1="50.1283" y1="4" x2="3.05786" y2="43.717"
                gradientUnits="userSpaceOnUse">
                <stop offset="0.25" stop-color="#3B768F" />
                <stop offset="0.536458" stop-color="#3EC6FF" />
                <stop offset="0.817708" stop-color="#3B768F" />
            </linearGradient>
        </defs>
    </symbol>
    <symbol id="blockchain" width="50" height="50" viewBox="0 0 50 50" fill="none">
        <path
            d="M6 3C4.346 3 3 4.346 3 6V16C3 17.654 4.346 19 6 19H9V21C8.99813 21.1325 9.02261 21.2641 9.07202 21.387C9.12143 21.51 9.1948 21.6219 9.28784 21.7163C9.38088 21.8107 9.49176 21.8856 9.61401 21.9368C9.73627 21.9879 9.86747 22.0142 10 22.0142C10.1325 22.0142 10.2637 21.9879 10.386 21.9368C10.5082 21.8856 10.6191 21.8107 10.7122 21.7163C10.8052 21.6219 10.8786 21.51 10.928 21.387C10.9774 21.2641 11.0019 21.1325 11 21V19H16C17.654 19 19 17.654 19 16V12H24C24.1325 12.0019 24.2641 11.9774 24.387 11.928C24.51 11.8786 24.6219 11.8052 24.7163 11.7122C24.8107 11.6191 24.8856 11.5082 24.9368 11.386C24.9879 11.2637 25.0142 11.1325 25.0142 11C25.0142 10.8675 24.9879 10.7363 24.9368 10.614C24.8856 10.4918 24.8107 10.3809 24.7163 10.2878C24.6219 10.1948 24.51 10.1214 24.387 10.072C24.2641 10.0226 24.1325 9.99813 24 10H19V6C19 4.346 17.654 3 16 3H6ZM34 3C32.346 3 31 4.346 31 6V10H28C27.8675 9.99813 27.7359 10.0226 27.613 10.072C27.49 10.1214 27.3781 10.1948 27.2837 10.2878C27.1893 10.3809 27.1144 10.4918 27.0632 10.614C27.0121 10.7363 26.9858 10.8675 26.9858 11C26.9858 11.1325 27.0121 11.2637 27.0632 11.386C27.1144 11.5082 27.1893 11.6191 27.2837 11.7122C27.3781 11.8052 27.49 11.8786 27.613 11.928C27.7359 11.9774 27.8675 12.0019 28 12H31V16C31 17.654 32.346 19 34 19H38V24C37.9981 24.1325 38.0226 24.2641 38.072 24.387C38.1214 24.51 38.1948 24.6219 38.2878 24.7163C38.3809 24.8107 38.4918 24.8856 38.614 24.9368C38.7363 24.9879 38.8675 25.0142 39 25.0142C39.1325 25.0142 39.2637 24.9879 39.386 24.9368C39.5082 24.8856 39.6191 24.8107 39.7122 24.7163C39.8052 24.6219 39.8786 24.51 39.928 24.387C39.9774 24.2641 40.0019 24.1325 40 24V19H44C45.654 19 47 17.654 47 16V6C47 4.346 45.654 3 44 3H34ZM9.98438 23.9863C9.7195 23.9905 9.46709 24.0995 9.28254 24.2896C9.09799 24.4796 8.99637 24.7351 9 25V31H6C4.346 31 3 32.346 3 34V44C3 45.654 4.346 47 6 47H16C17.654 47 19 45.654 19 44V40H22C22.1325 40.0019 22.2641 39.9774 22.387 39.928C22.51 39.8786 22.6219 39.8052 22.7163 39.7122C22.8107 39.6191 22.8856 39.5082 22.9368 39.386C22.9879 39.2637 23.0142 39.1325 23.0142 39C23.0142 38.8675 22.9879 38.7363 22.9368 38.614C22.8856 38.4918 22.8107 38.3809 22.7163 38.2878C22.6219 38.1948 22.51 38.1214 22.387 38.072C22.2641 38.0226 22.1325 37.9981 22 38H19V34C19 32.346 17.654 31 16 31H11V25C11.0018 24.8662 10.9768 24.7334 10.9264 24.6095C10.876 24.4855 10.8012 24.373 10.7065 24.2784C10.6118 24.1839 10.4991 24.1094 10.375 24.0592C10.251 24.009 10.1182 23.9842 9.98438 23.9863ZM38.9844 26.9863C38.7195 26.9905 38.4671 27.0995 38.2825 27.2896C38.098 27.4796 37.9964 27.7351 38 28V30H34C32.346 30 31 31.346 31 33V38H26C25.8675 37.9981 25.7359 38.0226 25.613 38.072C25.49 38.1214 25.3781 38.1948 25.2837 38.2878C25.1893 38.3809 25.1144 38.4918 25.0632 38.614C25.0121 38.7363 24.9858 38.8675 24.9858 39C24.9858 39.1325 25.0121 39.2637 25.0632 39.386C25.1144 39.5082 25.1893 39.6191 25.2837 39.7122C25.3781 39.8052 25.49 39.8786 25.613 39.928C25.7359 39.9774 25.8675 40.0019 26 40H31V43C31 44.654 32.346 46 34 46H44C45.654 46 47 44.654 47 43V33C47 31.346 45.654 30 44 30H40V28C40.0018 27.8662 39.9768 27.7334 39.9264 27.6095C39.876 27.4855 39.8012 27.373 39.7065 27.2784C39.6118 27.1839 39.4991 27.1094 39.375 27.0592C39.251 27.009 39.1182 26.9842 38.9844 26.9863Z"
            fill="url(#paint0_linear_177_1786)" />
        <defs>
            <linearGradient id="paint0_linear_177_1786" x1="52.641" y1="3" x2="2.98042" y2="46.9975"
                gradientUnits="userSpaceOnUse">
                <stop offset="0.25" stop-color="#3B768F" />
                <stop offset="0.536458" stop-color="#3EC6FF" />
                <stop offset="0.817708" stop-color="#3B768F" />
            </linearGradient>
        </defs>
    </symbol>
    <symbol id="web-design" width="50" height="50" viewBox="0 0 50 50" fill="none">
        <path
            d="M5 4C4.45 4 4 4.45 4 5V15C4 15.55 4.45 16 5 16H45C45.55 16 46 15.55 46 15V5C46 4.45 45.55 4 45 4H5ZM10 9C10.55 9 11 9.45 11 10C11 10.55 10.55 11 10 11C9.45 11 9 10.55 9 10C9 9.45 9.45 9 10 9ZM14 9C14.55 9 15 9.45 15 10C15 10.55 14.55 11 14 11C13.45 11 13 10.55 13 10C13 9.45 13.45 9 14 9ZM18 9C18.55 9 19 9.45 19 10C19 10.55 18.55 11 18 11C17.45 11 17 10.55 17 10C17 9.45 17.45 9 18 9ZM4 19V45C4.00003 45.2652 4.10539 45.5195 4.29292 45.7071C4.48045 45.8946 4.73479 46 5 46H45C45.2652 46 45.5195 45.8946 45.7071 45.7071C45.8946 45.5195 46 45.2652 46 45V19H44V44H6V19H4ZM10 19C9.448 19 9 19.447 9 20V40C9 40.553 9.448 41 10 41H23C23.552 41 24 40.553 24 40V20C24 19.447 23.552 19 23 19H10ZM27 19V21H41V19H27ZM27 24V26H41V24H27ZM27 29V31H41V29H27ZM27 34V36H41V34H27ZM27 39V41H41V39H27Z"
            fill="url(#paint0_linear_177_1792)" />
        <defs>
            <linearGradient id="paint0_linear_177_1792" x1="51.3846" y1="4" x2="3.98131"
                y2="45.9976" gradientUnits="userSpaceOnUse">
                <stop offset="0.25" stop-color="#3B768F" />
                <stop offset="0.536458" stop-color="#3EC6FF" />
                <stop offset="0.817708" stop-color="#3B768F" />
            </linearGradient>
        </defs>
    </symbol>
    <symbol id="survey" width="50" height="50" viewBox="0 0 50 50" fill="none"
        xmlns="http://www.w3.org/2000/svg">
        <path
            d="M17 0C16.4492 0 16 0.449219 16 1V9C16 9.55078 16.4492 10 17 10H33C33.5547 10 34 9.55078 34 9V1C34 0.449219 33.5547 0 33 0H17ZM8 2C6.34766 2 5 3.34766 5 5V47C5 48.6523 6.34766 50 8 50H42C43.6523 50 45 48.6523 45 47V5C45 3.34766 43.6523 2 42 2H36V6H41V46H9V6H14V2H8ZM11 8V44H39V8H36V9C36 10.6523 34.6523 12 33 12H17C15.3477 12 14 10.6523 14 9V8H11ZM15 17H23V25H15V17ZM17 19V23H21V19H17ZM26 20H35V22H26V20ZM15 30H23V38H15V30ZM17 32V36H21V32H17ZM18 33H20V35H18V33ZM26 33H35V35H26V33Z"
            fill="url(#paint0_linear_177_1798)" />
        <defs>
            <linearGradient id="paint0_linear_177_1798" x1="50.1282" y1="1.42987e-06" x2="-3.50923"
                y2="38.0167" gradientUnits="userSpaceOnUse">
                <stop offset="0.25" stop-color="#3B768F" />
                <stop offset="0.536458" stop-color="#3EC6FF" />
                <stop offset="0.817708" stop-color="#3B768F" />
            </linearGradient>
        </defs>
    </symbol>
    <symbol id="people" width="50" height="50" viewBox="0 0 50 50" fill="none">
        <path
            d="M26.9062 5C18.0391 5 14.7461 11.8516 17.2812 17.6562C16.9648 17.8672 16.457 18.5273 16.5625 19.6875C16.7734 21.7969 17.7227 22.3008 18.25 22.4062C18.4609 24.4102 19.7305 26.7461 20.4688 27.0625C20.4688 28.4336 20.4492 29.582 20.3438 31.0625C18.7266 35.3086 8.39062 34.3242 7.0625 41.9375C7.00391 42.2695 7.34766 43 8.03125 43H42C43.0156 43 42.9961 42.25 42.9375 41.9062C41.5859 34.3242 31.2734 35.3047 29.6562 31.0625C29.5508 29.4766 29.5312 28.4336 29.5312 27.0625C30.2695 26.7461 31.4453 24.3047 31.6562 22.4062C32.1836 22.4062 33.0273 21.7695 33.3438 19.6562C33.4492 18.4961 33.0156 17.7617 32.5938 17.6562C34.2812 15.5469 33.9766 6.90625 27.75 6.90625L26.9062 5ZM15.1562 10C8.48047 10.1133 5.55469 15.4258 7.5625 19.9688C7.34766 20.0742 6.92578 20.6328 7.03125 21.5938C7.24609 23.3047 7.88281 23.7188 8.3125 23.7188C8.52344 25.3203 9.46875 27.1172 10 27.4375C10 28.5039 10.0117 28.4727 9.90625 29.75C9.03906 32.4844 0 32.2812 0 39C0 39 0 40 1 40H5.53125C7.05859 35.6797 11.2109 34.0156 14.3438 32.7812C16.0703 32.1016 17.8398 31.4141 18.375 30.5625C18.4336 29.6328 18.4648 28.8438 18.4688 27.9688C17.5195 26.8828 16.8125 25.1914 16.4688 23.75C15.6562 23.1484 14.7773 21.9922 14.5625 19.8438C14.4688 18.8242 14.6836 17.9766 15.0312 17.3125C14.2383 14.8477 14.2891 12.2734 15.1562 10ZM38 10C37.043 10 35.9141 10.0781 34.8438 10.25C35.6445 12.5977 35.6758 15.4023 34.9688 17.4062C35.2812 18.0938 35.4258 18.9297 35.3438 19.8438L35.3125 19.9062V19.9688C35.0156 21.9336 34.293 23.1289 33.4375 23.7812C33.1133 25.1328 32.4531 26.8398 31.5312 27.9375C31.5352 28.7969 31.5664 29.5703 31.625 30.5625C32.1602 31.4141 33.9336 32.1016 35.6562 32.7812C38.7852 34.0117 42.9375 35.6797 44.4688 40H49C50 40 50 39.0312 50 39.0312C50.0039 31.2969 41.4414 33.1289 40.1562 29.5938C40.0469 28.4141 40.0312 28.5234 40.0312 27.3438C40.5664 27.0234 41.5508 25.2227 41.6562 23.7188C42.0859 23.7188 42.7227 23.2773 42.9375 21.5625C43.043 20.707 42.7266 20.0742 42.4062 19.9688C43.6953 18.2539 43.4844 11.5 38.6562 11.5L38 10Z"
            fill="url(#paint0_linear_177_1804)" />
        <defs>
            <linearGradient id="paint0_linear_177_1804" x1="56.4103" y1="5" x2="13.7099"
                y2="54.7776" gradientUnits="userSpaceOnUse">
                <stop offset="0.25" stop-color="#3B768F" />
                <stop offset="0.536458" stop-color="#3EC6FF" />
                <stop offset="0.817708" stop-color="#3B768F" />
            </linearGradient>
        </defs>
    </symbol>
    <symbol id="conference" width="50" height="50" viewBox="0 0 50 50" fill="none"
        xmlns="http://www.w3.org/2000/svg">
        <g clip-path="url(#clip0_177_1810)">
            <path
                d="M49.9961 27.9414C49.7852 24.3828 47.3945 23.25 45.6484 22.4258C44.7383 21.9922 43.9492 21.6211 43.6641 21.043C43.6211 20.4805 43.625 20.0273 43.6289 19.5117V19.4336C44.1289 18.8516 44.5508 17.9023 44.75 17.043C45.1914 16.7383 45.6523 16.1367 45.8008 14.9297C45.8711 14.3164 45.7305 13.8203 45.5039 13.4492C45.8477 12.1953 46.3906 9.46484 45.2461 7.625C44.7461 6.81641 43.9766 6.27734 43.0039 6.04688C42.3828 5.36719 41.3164 5 39.9336 5H39.9297C37.7852 5.03906 36.2031 5.71094 35.2266 6.99609C34.1172 8.46094 33.8789 10.6172 34.5156 13.418C34.2773 13.793 34.125 14.3047 34.1992 14.9336C34.3477 16.1445 34.8125 16.7461 35.2539 17.0469C35.4609 17.8984 35.8945 18.8516 36.4023 19.4375V19.5156C36.4062 20.0273 36.4102 20.4805 36.3672 21.0391C36.2305 21.2891 35.9492 21.5117 35.5508 21.7266C34.6133 19.1797 32.4258 18.1719 30.7734 17.4102C29.793 16.9609 28.9414 16.5664 28.6641 16.0391C28.6211 15.4805 28.625 15.0312 28.6289 14.5156L28.6328 14.4336C29.1289 13.8516 29.5547 12.9062 29.7539 12.043C30.1914 11.7422 30.6562 11.1367 30.8008 9.92969C30.875 9.32031 30.7344 8.82031 30.5078 8.44922C30.8477 7.19531 31.3906 4.46484 30.25 2.62891C29.7461 1.82031 28.9766 1.27734 28.0078 1.04688C27.5156 0.511719 26.6133 0.015625 24.9336 0.015625C22.7852 0.0585938 21.1992 0.726563 20.2266 2.01172C19.1172 3.47266 18.8828 5.625 19.5195 8.41797C19.2812 8.79297 19.1289 9.30469 19.2031 9.93359C19.3477 11.1445 19.8125 11.7461 20.2578 12.0469C20.4609 12.8984 20.8984 13.8516 21.4023 14.4375V14.5195C21.4062 15.0352 21.4102 15.4844 21.3672 16.0391C21.0898 16.5664 20.2344 16.9609 19.25 17.4102C17.5898 18.1719 15.3945 19.1797 14.4531 21.7266C14.0547 21.5117 13.7695 21.2891 13.6367 21.0391C13.5938 20.4766 13.5977 20.0234 13.6016 19.5039V19.4375C14.1055 18.8516 14.543 17.8984 14.7461 17.0469C15.1875 16.7422 15.6523 16.1406 15.8008 14.9297C15.875 14.3008 15.7227 13.7891 15.4844 13.4141C16.1211 10.6172 15.8828 8.45703 14.7734 6.99609C13.7969 5.71094 12.2148 5.03906 10.0508 5C8.67969 5 7.61719 5.36719 6.99609 6.04688C6.02344 6.27734 5.25391 6.82031 4.75 7.62891C3.60938 9.46484 4.15234 12.1953 4.49609 13.4492C4.26953 13.8203 4.12891 14.3203 4.19922 14.9336C4.34766 16.1406 4.80859 16.7422 5.25 17.0469C5.44922 17.9062 5.87109 18.8516 6.37109 19.4336V19.5156C6.375 20.0312 6.37891 20.4844 6.33594 21.0469C6.05078 21.6211 5.25781 21.9961 4.35156 22.4258C2.60547 23.25 0.214844 24.3828 0 28V39C0 39.0664 0.0078125 39.1328 0.0195313 39.1992C0.078125 39.4922 1.54688 46.0156 11.5234 49.2891C11.5234 49.2891 11.6875 49.4336 12.9805 49.5859C12.9766 49.1445 12.9766 48.4102 13.0156 47.6836C13.3906 44.0312 16.332 42.8398 18.4961 41.9609C19.6758 41.4844 20.7891 41.0312 21.1211 40.3828C21.1719 39.7656 21.1641 39.2656 21.1602 38.6992V38.5859C20.6055 37.957 20.1211 36.8984 19.9023 35.9609C19.4336 35.6523 18.9258 35.0156 18.7695 33.7031C18.6875 33.0273 18.8594 32.4805 19.1172 32.0859C18.418 29.0508 18.668 26.7148 19.8672 25.1367C20.9102 23.7617 22.6094 23.0391 24.9141 23C26.4102 23 27.5508 23.3945 28.207 24.1289C29.2539 24.3711 30.0859 24.9492 30.6211 25.8125C31.8555 27.8008 31.25 30.7812 30.8789 32.1172C31.1289 32.5117 31.2891 33.0469 31.2109 33.707C31.0508 35.0156 30.5469 35.6523 30.0742 35.9609C29.8594 36.8984 29.3906 37.9531 28.8477 38.5781L28.8438 38.6992C28.8398 39.2656 28.8359 39.7617 28.8828 40.3828C29.2188 41.0352 30.3281 41.4883 31.5 41.9609C33.668 42.8438 36.6172 44.043 36.9688 47.6836C37.0117 48.2148 37 49.2227 36.9922 49.6602C37.9336 49.5547 37.9922 49.4609 37.9922 49.4609C48.4258 46.2422 49.918 39.5039 49.9805 39.1992C49.9922 39.1328 50 39.0664 50 39L49.9961 27.9414Z"
                fill="url(#paint0_linear_177_1810)" />
        </g>
        <defs>
            <linearGradient id="paint0_linear_177_1810" x1="56.4103" y1="0.0156264" x2="0.332164"
                y2="50.0545" gradientUnits="userSpaceOnUse">
                <stop offset="0.25" stop-color="#3B768F" />
                <stop offset="0.536458" stop-color="#3EC6FF" />
                <stop offset="0.817708" stop-color="#3B768F" />
            </linearGradient>
            <clipPath id="clip0_177_1810">
                <rect width="50" height="50" fill="white" />
            </clipPath>
        </defs>
    </symbol>
    <symbol id="skyscrapers" width="50" height="50" viewBox="0 0 50 50" fill="none">
        <path
            d="M19 3V4H15V47H19V46H20V47H21V46H22V47H23V46H24V47H25V46H26V47H27V46H28V47H29V46H30V47H34V4H30V3H19ZM13 7.16797L3 11.332V47H7V45H8V47H9V45H10V47H11V45H12V47H13V7.16797ZM19 8H20V9H19V8ZM21 8H22V9H21V8ZM23 8H24V9H23V8ZM25 8H26V9H25V8ZM27 8H28V9H27V8ZM29 8H30V9H29V8ZM19 10H20V11H19V10ZM21 10H22V11H21V10ZM23 10H24V11H23V10ZM25 10H26V11H25V10ZM27 10H28V11H27V10ZM29 10H30V11H29V10ZM12 11.7344V14H11V12.1211L12 11.7344ZM19 12H20V13H19V12ZM21 12H22V13H21V12ZM23 12H24V13H23V12ZM25 12H26V13H25V12ZM27 12H28V13H27V12ZM29 12H30V13H29V12ZM36 12V16H37V17H36V18H37V19H36V20H37V21H36V22H37V23H36V24H37V25H36V26H37V27H36V28H37V29H36V30H37V31H36V32H37V33H36V34H37V35H36V36H37V37H36V38H37V39H36V40H37V41H36V42H37V43H36V44H37V45H36V46H37V47H38V46H40V47H41V46H43V47H47V12H36ZM10 12.5V14H9V12.8867L10 12.5ZM8 13.2656V14H7V13.6523L8 13.2656ZM19 14H20V15H19V14ZM21 14H22V15H21V14ZM23 14H24V15H23V14ZM25 14H26V15H25V14ZM27 14H28V15H27V14ZM29 14H30V15H29V14ZM7 15H8V17H7V15ZM9 15H10V17H9V15ZM11 15H12V17H11V15ZM19 16H20V17H19V16ZM21 16H22V17H21V16ZM23 16H24V17H23V16ZM25 16H26V17H25V16ZM27 16H28V17H27V16ZM29 16H30V17H29V16ZM38 16H40V17H38V16ZM41 16H43V17H41V16ZM7 18H8V20H7V18ZM9 18H10V20H9V18ZM11 18H12V20H11V18ZM19 18H20V19H19V18ZM21 18H22V19H21V18ZM23 18H24V19H23V18ZM25 18H26V19H25V18ZM27 18H28V19H27V18ZM29 18H30V19H29V18ZM38 18H40V19H38V18ZM41 18H43V19H41V18ZM19 20H20V21H19V20ZM21 20H22V21H21V20ZM23 20H24V21H23V20ZM25 20H26V21H25V20ZM27 20H28V21H27V20ZM29 20H30V21H29V20ZM38 20H40V21H38V20ZM41 20H43V21H41V20ZM7 21H8V23H7V21ZM9 21H10V23H9V21ZM11 21H12V23H11V21ZM19 22H20V23H19V22ZM21 22H22V23H21V22ZM23 22H24V23H23V22ZM25 22H26V23H25V22ZM27 22H28V23H27V22ZM29 22H30V23H29V22ZM38 22H40V23H38V22ZM41 22H43V23H41V22ZM7 24H8V26H7V24ZM9 24H10V26H9V24ZM11 24H12V26H11V24ZM19 24H20V25H19V24ZM21 24H22V25H21V24ZM23 24H24V25H23V24ZM25 24H26V25H25V24ZM27 24H28V25H27V24ZM29 24H30V25H29V24ZM38 24H40V25H38V24ZM41 24H43V25H41V24ZM19 26H20V27H19V26ZM21 26H22V27H21V26ZM23 26H24V27H23V26ZM25 26H26V27H25V26ZM27 26H28V27H27V26ZM29 26H30V27H29V26ZM38 26H40V27H38V26ZM41 26H43V27H41V26ZM7 27H8V29H7V27ZM9 27H10V29H9V27ZM11 27H12V29H11V27ZM19 28H20V29H19V28ZM21 28H22V29H21V28ZM23 28H24V29H23V28ZM25 28H26V29H25V28ZM27 28H28V29H27V28ZM29 28H30V29H29V28ZM38 28H40V29H38V28ZM41 28H43V29H41V28ZM7 30H8V32H7V30ZM9 30H10V32H9V30ZM11 30H12V32H11V30ZM19 30H20V31H19V30ZM21 30H22V31H21V30ZM23 30H24V31H23V30ZM25 30H26V31H25V30ZM27 30H28V31H27V30ZM29 30H30V31H29V30ZM38 30H40V31H38V30ZM41 30H43V31H41V30ZM19 32H20V33H19V32ZM21 32H22V33H21V32ZM23 32H24V33H23V32ZM25 32H26V33H25V32ZM27 32H28V33H27V32ZM29 32H30V33H29V32ZM38 32H40V33H38V32ZM41 32H43V33H41V32ZM7 33H8V35H7V33ZM9 33H10V35H9V33ZM11 33H12V35H11V33ZM19 34H20V35H19V34ZM21 34H22V35H21V34ZM23 34H24V35H23V34ZM25 34H26V35H25V34ZM27 34H28V35H27V34ZM29 34H30V35H29V34ZM38 34H40V35H38V34ZM41 34H43V35H41V34ZM7 36H8V38H7V36ZM9 36H10V38H9V36ZM11 36H12V38H11V36ZM19 36H20V37H19V36ZM21 36H22V37H21V36ZM23 36H24V37H23V36ZM25 36H26V37H25V36ZM27 36H28V37H27V36ZM29 36H30V37H29V36ZM38 36H40V37H38V36ZM41 36H43V37H41V36ZM19 38H20V39H19V38ZM21 38H22V39H21V38ZM23 38H24V39H23V38ZM25 38H26V39H25V38ZM27 38H28V39H27V38ZM29 38H30V39H29V38ZM38 38H40V39H38V38ZM41 38H43V39H41V38ZM7 39H8V41H7V39ZM9 39H10V41H9V39ZM11 39H12V41H11V39ZM19 40H20V41H19V40ZM21 40H22V41H21V40ZM23 40H24V41H23V40ZM25 40H26V41H25V40ZM27 40H28V41H27V40ZM29 40H30V41H29V40ZM38 40H40V41H38V40ZM41 40H43V41H41V40ZM7 42H8V44H7V42ZM9 42H10V44H9V42ZM11 42H12V44H11V42ZM19 42H20V43H19V42ZM21 42H22V43H21V42ZM23 42H24V43H23V42ZM25 42H26V43H25V42ZM27 42H28V43H27V42ZM29 42H30V43H29V42ZM38 42H40V43H38V42ZM41 42H43V43H41V42ZM19 44H20V45H19V44ZM21 44H22V45H21V44ZM23 44H24V45H23V44ZM25 44H26V45H25V44ZM27 44H28V45H27V44ZM29 44H30V45H29V44ZM38 44H40V45H38V44ZM41 44H43V45H41V44Z"
            fill="url(#paint0_linear_177_1816)" />
        <defs>
            <linearGradient id="paint0_linear_177_1816" x1="52.641" y1="3" x2="2.98042" y2="46.9975"
                gradientUnits="userSpaceOnUse">
                <stop offset="0.25" stop-color="#3B768F" />
                <stop offset="0.536458" stop-color="#3EC6FF" />
                <stop offset="0.817708" stop-color="#3B768F" />
            </linearGradient>
        </defs>
    </symbol>
    <symbol id="right" width="36" height="36" viewBox="0 0 36 36" fill="none">
        <path
            d="M18 0C8.03077 0 0 8.03077 0 18C0 27.9692 8.03077 36 18 36C27.9692 36 36 27.9692 36 18C36 16.0615 35.7242 14.1236 35.0319 12.3236L32.8143 14.5385C33.0912 15.6462 33.2308 16.7538 33.2308 18C33.2308 26.4462 26.4462 33.2308 18 33.2308C9.55385 33.2308 2.76923 26.4462 2.76923 18C2.76923 9.55385 9.55385 2.76923 18 2.76923C22.1538 2.76923 25.7533 4.43023 28.5225 7.061L30.4615 5.122C27.2769 1.93738 22.8462 0 18 0ZM33.6472 6.23077L18 21.878L12.0451 15.9231L10.1088 18L18 25.8912L35.5835 8.30769L33.6472 6.23077Z"
            fill="url(#paint0_linear_177_1932)" />
        <defs>
            <linearGradient id="paint0_linear_177_1932" x1="40.6154" y1="1.02951e-06"
                x2="-0.0160226" y2="35.998" gradientUnits="userSpaceOnUse">
                <stop offset="0.25" stop-color="#3B768F" />
                <stop offset="0.536458" stop-color="#3EC6FF" />
                <stop offset="0.817708" stop-color="#3B768F" />
            </linearGradient>
        </defs>
    </symbol>
    <symbol id="footer-mail" width="25" height="25" viewBox="0 0 25 25" fill="none">
        <path
            d="M0 7V7.5V25H25V7H0ZM1 8H24V9.28125C23.7774 9.47479 14.9085 17.1857 14.1729 17.8232C13.5269 18.3831 12.8391 18.501 12.5 18.501C12.1609 18.501 11.4731 18.3831 10.8271 17.8232C10.6417 17.6625 9.31134 16.5058 8.34961 15.6699L8.33984 15.6572L8.33789 15.6592C5.48222 13.1771 1.1662 9.42576 1 9.28125V8ZM1 10.6025C1.87369 11.3623 4.92064 14.0112 7.54102 16.2891L1 21.457V10.6025ZM24 10.6025V21.459L17.4453 16.3008C20.0643 14.0241 23.1245 11.3639 24 10.6025ZM8.30859 16.957C8.92647 17.4941 10.0314 18.4546 10.1729 18.5771C11.0269 19.3173 11.9391 19.499 12.5 19.499C13.0609 19.499 13.9731 19.3173 14.8271 18.5771C14.9675 18.4555 16.0663 17.4993 16.6768 16.9688L24 22.7324V24H1V22.7324L8.30859 16.957Z"
            fill="url(#paint0_linear_177_2235)" />
        <defs>
            <linearGradient id="paint0_linear_177_2235" x1="12.5" y1="7" x2="12.5" y2="25"
                gradientUnits="userSpaceOnUse">
                <stop stop-color="#4ABCEC" />
                <stop offset="1" stop-color="#4A8BEC" />
            </linearGradient>
        </defs>
    </symbol>
    <symbol id="footer-phone" width="25" height="25" viewBox="0 0 25 25" fill="none">
        <path
            d="M5.91953 1.49436C5.53477 1.46311 5.10703 1.57444 4.7125 1.85179C4.36485 2.09397 3.61485 2.68968 2.91367 3.36351C2.56406 3.69944 2.23008 4.04905 1.97227 4.3928C1.7125 4.73655 1.48594 5.05101 1.49961 5.50804C1.51328 5.91819 1.5543 7.13108 2.42735 8.99046C3.30039 10.8479 4.99375 13.3967 8.29649 16.7014C11.6012 20.0061 14.15 21.6994 16.0074 22.5725C17.8648 23.4455 19.0797 23.4866 19.4898 23.5002C19.9449 23.5139 20.2594 23.2873 20.6031 23.0276C20.9469 22.7678 21.2965 22.4358 21.6324 22.0862C22.3043 21.385 22.9 20.635 23.1422 20.2873C23.6949 19.5002 23.6031 18.5705 22.9879 18.1389C22.6012 17.8674 19.0445 15.5002 18.5094 15.1721C17.9664 14.8401 17.3414 14.9905 16.7828 15.2854C16.3434 15.5178 15.1539 16.1994 14.8141 16.3948C14.5582 16.2326 13.5875 15.5862 11.4996 13.4983C9.40977 11.4104 8.76524 10.4397 8.60313 10.1838C8.79844 9.84397 9.47813 8.66038 9.7125 8.21311C10.0055 7.65647 10.1695 7.02561 9.81992 6.47874C9.67344 6.24632 9.00742 5.23265 8.33555 4.21507C7.66172 3.19749 7.02305 2.23265 6.85703 2.00218V2.00022C6.64024 1.7014 6.30235 1.52561 5.91953 1.49436ZM5.82774 2.51585C5.96446 2.53343 6.04649 2.58811 6.04649 2.58811C6.12656 2.69944 6.82774 3.75022 7.49961 4.76585C8.17149 5.78343 8.85703 6.8264 8.97617 7.01585C8.99571 7.04515 9.02305 7.37718 8.82774 7.74632V7.74827C8.60703 8.16819 7.57774 9.96702 7.57774 9.96702L7.43516 10.219L7.58164 10.469C7.58164 10.469 8.34922 11.7639 10.7906 14.2053C13.234 16.6467 14.5289 17.4162 14.5289 17.4162L14.7789 17.5627L15.0309 17.4201C15.0309 17.4201 16.8258 16.3928 17.2496 16.1701C17.6188 15.9768 17.9508 16.0022 17.9898 16.0256C18.3356 16.2385 22.1773 18.7912 22.4137 18.9573C22.4215 18.9631 22.6305 19.2795 22.3258 19.7131H22.3238C22.1402 19.9768 21.5387 20.7405 20.9117 21.3928C20.5973 21.719 20.275 22.0237 20.0016 22.2287C19.7281 22.4338 19.484 22.4983 19.5231 22.5002C19.0973 22.4866 18.1578 22.4768 16.4332 21.6662C14.7086 20.8576 12.2477 19.2385 9.00352 15.9924C5.76133 12.7502 4.14219 10.2893 3.33164 8.56272C2.52305 6.83811 2.51328 5.89866 2.49961 5.47483C2.50156 5.5139 2.56602 5.2678 2.7711 4.99436C2.97617 4.72093 3.27891 4.39671 3.60508 4.08226C4.25938 3.4553 5.0211 2.85374 5.28477 2.67015V2.6721C5.50156 2.51976 5.69102 2.50022 5.82774 2.51585Z"
            fill="url(#paint0_linear_177_2232)" />
        <defs>
            <linearGradient id="paint0_linear_177_2232" x1="12.5034" y1="1.48926" x2="12.5034"
                y2="23.5008" gradientUnits="userSpaceOnUse">
                <stop stop-color="#4ABCEC" />
                <stop offset="1" stop-color="#4A8BEC" />
            </linearGradient>
        </defs>
    </symbol>
    <symbol id="facebook" width="24" height="24" viewBox="0 0 24 24" fill="none">
        <path
            d="M17.525 9.00006H14V7.00006C14 5.96806 14.084 5.31806 15.563 5.31806H17.431V2.13806C16.522 2.04406 15.608 1.99806 14.693 2.00006C11.98 2.00006 10 3.65706 10 6.69906V9.00006H7V13.0001L10 12.9991V22.0001H14V12.9971L17.066 12.9961L17.525 9.00006Z"
            fill="url(#paint0_linear_177_2240)" />
        <defs>
            <linearGradient id="paint0_linear_177_2240" x1="18.8744" y1="2" x2="1.45717"
                y2="10.1205" gradientUnits="userSpaceOnUse">
                <stop offset="0.25" stop-color="#3B768F" />
                <stop offset="0.536458" stop-color="#3EC6FF" />
                <stop offset="0.817708" stop-color="#3B768F" />
            </linearGradient>
        </defs>
    </symbol>
    <symbol id="facebook-massenger" width="30" height="30" viewBox="0 0 30 30" fill="none"
        xmlns="http://www.w3.org/2000/svg">
        <path
            d="M15 3C8.373 3 3 8.149 3 14.5C3 17.9012 4.55067 20.9472 7 23.0527V28L11.8359 25.582C12.8455 25.8463 13.903 26 15 26C21.627 26 27 20.851 27 14.5C27 8.149 21.627 3 15 3ZM13.8613 11.3574L16.8125 14.3125L22.084 11.3574L16.1387 17.8008L13.2559 14.7031L7.8457 17.7305L13.8613 11.3574Z"
            fill="url(#paint0_linear_177_2242)" />
        <defs>
            <linearGradient id="paint0_linear_177_2242" x1="30.0769" y1="3" x2="2.02208"
                y2="26.8613" gradientUnits="userSpaceOnUse">
                <stop offset="0.25" stop-color="#3B768F" />
                <stop offset="0.536458" stop-color="#3EC6FF" />
                <stop offset="0.817708" stop-color="#3B768F" />
            </linearGradient>
        </defs>
    </symbol>
    <symbol id="youtube" width="26" height="26" viewBox="0 0 26 26" fill="none"
        xmlns="http://www.w3.org/2000/svg">
        <path
            d="M6.3127 0.03125L8.09395 5.875V9.6875H9.59395V5.6875L11.3127 0.03125H9.8127L8.8752 3.875H8.78145L7.8127 0.03125H6.3127ZM13.2189 2.375C12.6174 2.375 12.1369 2.54688 11.7814 2.875C11.426 3.19922 11.2502 3.63672 11.2502 4.1875V7.875C11.2502 8.48047 11.4338 8.98828 11.7814 9.34375C12.133 9.70312 12.5744 9.875 13.1564 9.875C13.758 9.875 14.2502 9.69141 14.5939 9.34375C14.9377 8.99609 15.0939 8.51562 15.0939 7.90625V4.21875C15.0939 3.67578 14.9143 3.25 14.5627 2.90625C14.215 2.55859 13.7697 2.375 13.2189 2.375ZM16.2189 2.5625V8.53125C16.2189 8.95703 16.3127 9.25781 16.4689 9.46875C16.6252 9.67969 16.8518 9.78125 17.1564 9.78125C17.4025 9.78125 17.6447 9.71094 17.9064 9.5625C18.1721 9.41016 18.4455 9.19531 18.6877 8.90625V9.6875H20.0002V2.5625H18.6877V7.96875C18.5627 8.12109 18.4299 8.24609 18.2814 8.34375C18.133 8.44531 18.0041 8.5 17.9064 8.5C17.7854 8.5 17.6799 8.48047 17.6252 8.40625C17.5666 8.33203 17.5627 8.19531 17.5627 8.03125V2.5625H16.2189ZM13.1564 3.625C13.3322 3.625 13.4885 3.65625 13.5939 3.75C13.7033 3.84766 13.7502 3.97266 13.7502 4.125V8.03125C13.7502 8.22266 13.6994 8.36328 13.5939 8.46875C13.4885 8.57812 13.3361 8.625 13.1564 8.625C12.9807 8.625 12.8439 8.57422 12.7502 8.46875C12.6525 8.36328 12.6252 8.22656 12.6252 8.03125V4.125C12.6252 3.97266 12.6799 3.84766 12.7814 3.75C12.883 3.65625 12.9963 3.625 13.1564 3.625ZM13.0002 11.1562C10.4064 11.1523 7.86348 11.1758 5.3752 11.2812C3.63691 11.2812 2.21895 12.6836 2.21895 14.4062C2.11348 15.7695 2.05879 17.1367 2.0627 18.5C2.05879 19.8633 2.11348 21.2305 2.21895 22.5938C2.21895 24.3164 3.63691 25.7188 5.3752 25.7188C7.86348 25.8203 10.4064 25.8477 13.0002 25.8438C15.5979 25.8516 18.1408 25.8203 20.6252 25.7188C22.3635 25.7188 23.7814 24.3164 23.7814 22.5938C23.8869 21.2305 23.9416 19.8633 23.9377 18.5C23.9455 17.1367 23.8869 15.7695 23.7814 14.4062C23.7814 12.6836 22.3635 11.2812 20.6252 11.2812C18.1408 11.1758 15.5979 11.1523 13.0002 11.1562ZM3.7502 13.375H8.34395C8.42598 13.375 8.5002 13.4492 8.5002 13.5312V14.9375C8.5002 15.0195 8.42598 15.0938 8.34395 15.0938H6.9377V23.1875C6.9377 23.2695 6.89473 23.3438 6.8127 23.3438H5.3127C5.23066 23.3438 5.15645 23.2695 5.15645 23.1875V15.0938H3.7502C3.66816 15.0938 3.6252 15.0195 3.6252 14.9375V13.5312C3.6252 13.4492 3.66816 13.375 3.7502 13.375ZM13.4064 13.375H14.7502C14.8322 13.375 14.9064 13.4492 14.9064 13.5312V16.25C15.0158 16.1484 15.133 16.0664 15.2502 16C15.4768 15.875 15.7072 15.8125 15.9377 15.8125C16.4064 15.8125 16.7502 16 17.0002 16.3438C17.2385 16.6758 17.3752 17.1406 17.3752 17.75V21.7188C17.3752 22.2578 17.2619 22.6758 17.0314 22.9688C16.7932 23.2734 16.4377 23.4375 16.0002 23.4375C15.7229 23.4375 15.4768 23.3633 15.2502 23.25C15.1291 23.1875 15.0158 23.1289 14.9064 23.0312V23.1875C14.9064 23.2695 14.8322 23.3438 14.7502 23.3438H13.4064C13.3244 23.3438 13.2502 23.2695 13.2502 23.1875V13.5312C13.2502 13.4492 13.3244 13.375 13.4064 13.375ZM20.2189 15.7188C20.8674 15.7188 21.3986 15.9219 21.7502 16.3125C22.1018 16.7031 22.2814 17.2578 22.2814 17.9688V19.8125C22.2814 19.8945 22.2072 19.9375 22.1252 19.9375H19.7502V21.1562C19.7502 21.5938 19.7971 21.7656 19.8439 21.8438C19.883 21.9062 19.9494 22 20.1564 22C20.3244 22 20.4416 21.9531 20.5002 21.875C20.5275 21.832 20.5939 21.6758 20.5939 21.1562V20.6562C20.5939 20.5742 20.6682 20.5 20.7502 20.5H22.1252C22.2072 20.5 22.2814 20.5742 22.2814 20.6562V21.1875C22.2814 21.957 22.0744 22.543 21.7189 22.9375C21.3635 23.3359 20.8283 23.5312 20.1252 23.5312C19.4885 23.5312 18.9924 23.332 18.6252 22.9062C18.2619 22.4883 18.0627 21.9102 18.0627 21.1875V17.9688C18.0627 17.3125 18.2541 16.793 18.6564 16.375C19.0588 15.957 19.5861 15.7188 20.2189 15.7188ZM8.34395 15.9062H9.65645C9.73848 15.9062 9.8127 15.9805 9.8127 16.0625V21.5312C9.8127 21.7109 9.82441 21.7852 9.84395 21.8125C9.85176 21.8242 9.88691 21.875 10.0002 21.875C10.0393 21.875 10.1252 21.8594 10.2814 21.75C10.4104 21.6641 10.5236 21.5586 10.6252 21.4375V16.0625C10.6252 15.9805 10.6994 15.9062 10.7814 15.9062H12.1252C12.2072 15.9062 12.2502 15.9805 12.2502 16.0625V23.1875C12.2502 23.2695 12.2072 23.3438 12.1252 23.3438H10.7814C10.6994 23.3438 10.6252 23.2695 10.6252 23.1875V22.7812C10.4494 22.9531 10.2775 23.082 10.0939 23.1875C9.80488 23.3516 9.53145 23.4375 9.2502 23.4375C8.89473 23.4375 8.62129 23.3164 8.4377 23.0625C8.26191 22.8242 8.1877 22.4844 8.1877 22.0312V16.0625C8.1877 15.9805 8.26191 15.9062 8.34395 15.9062ZM15.2502 17.25C15.1994 17.2578 15.1486 17.2852 15.0939 17.3125C15.0314 17.3438 14.9689 17.4023 14.9064 17.4688V21.7812C14.9846 21.8633 15.051 21.9336 15.1252 21.9688C15.2072 22.0078 15.2854 22.0312 15.3752 22.0312C15.5432 22.0312 15.6096 21.9609 15.6252 21.9375C15.6643 21.8867 15.6877 21.7695 15.6877 21.5312V17.8438C15.6877 17.6406 15.6682 17.4727 15.5939 17.375C15.5197 17.2773 15.4025 17.2227 15.2502 17.25ZM20.1877 17.2812C20.0275 17.2812 19.9104 17.3164 19.8439 17.4062C19.7971 17.4727 19.7502 17.6367 19.7502 17.9688V18.5312H20.5939V17.9688C20.5939 17.6406 20.551 17.4805 20.5002 17.4062C20.4377 17.3203 20.34 17.2812 20.1877 17.2812Z"
            fill="url(#paint0_linear_177_2244)" />
        <defs>
            <linearGradient id="paint0_linear_177_2244" x1="26.743" y1="0.0312507" x2="-1.44001"
                y2="21.1914" gradientUnits="userSpaceOnUse">
                <stop offset="0.25" stop-color="#3B768F" />
                <stop offset="0.536458" stop-color="#3EC6FF" />
                <stop offset="0.817708" stop-color="#3B768F" />
            </linearGradient>
        </defs>
    </symbol>
    <symbol id="whatsapp" width="30" height="30" viewBox="0 0 30 30" fill="none"
        xmlns="http://www.w3.org/2000/svg">
        <path
            d="M15 3C8.373 3 3 8.373 3 15C3 17.2512 3.63234 19.3501 4.71094 21.1504L3.10742 27L9.08203 25.4316C10.8294 26.4251 12.8465 27 15 27C21.627 27 27 21.627 27 15C27 8.373 21.627 3 15 3ZM10.8926 9.40234C11.0876 9.40234 11.2879 9.40116 11.4609 9.41016C11.6749 9.41516 11.9079 9.43083 12.1309 9.92383C12.3959 10.5098 12.9729 11.9799 13.0469 12.1289C13.1209 12.2779 13.1733 12.4534 13.0703 12.6484C12.9723 12.8484 12.9213 12.9695 12.7773 13.1465C12.6283 13.3185 12.4651 13.5321 12.3301 13.6621C12.1811 13.8111 12.0272 13.9745 12.1992 14.2715C12.3712 14.5685 12.9686 15.5421 13.8516 16.3281C14.9866 17.3421 15.9442 17.6537 16.2422 17.8027C16.5402 17.9517 16.7128 17.9285 16.8848 17.7285C17.0618 17.5335 17.6281 16.8644 17.8281 16.5664C18.0231 16.2684 18.2222 16.32 18.4922 16.418C18.7662 16.516 20.2274 17.2358 20.5254 17.3848C20.8234 17.5338 21.0187 17.6075 21.0938 17.7285C21.1707 17.8535 21.1708 18.4486 20.9238 19.1426C20.6768 19.8356 19.4639 20.5057 18.9199 20.5527C18.3709 20.6037 17.8586 20.7995 15.3516 19.8125C12.3276 18.6215 10.4205 15.5242 10.2715 15.3242C10.1225 15.1292 9.06055 13.7139 9.06055 12.2539C9.06055 10.7889 9.82866 10.0714 10.0977 9.77344C10.3717 9.47544 10.6926 9.40234 10.8926 9.40234Z"
            fill="url(#paint0_linear_177_2246)" />
        <defs>
            <linearGradient id="paint0_linear_177_2246" x1="30.0769" y1="3" x2="2.98932"
                y2="26.9986" gradientUnits="userSpaceOnUse">
                <stop offset="0.25" stop-color="#3B768F" />
                <stop offset="0.536458" stop-color="#3EC6FF" />
                <stop offset="0.817708" stop-color="#3B768F" />
            </linearGradient>
        </defs>
    </symbol>
    <symbol id="return-arrow" width="15" height="30" viewBox="0 0 15 30" fill="none">
        <path
            d="M8.07136 0.292892C7.68084 -0.0976315 7.04767 -0.0976314 6.65715 0.292892L0.293189 6.65685C-0.0973354 7.04738 -0.0973354 7.68054 0.293189 8.07107C0.683713 8.46159 1.31688 8.46159 1.7074 8.07107L7.36426 2.41421L13.0211 8.07107C13.4116 8.46159 14.0448 8.46159 14.4353 8.07107C14.8258 7.68054 14.8258 7.04738 14.4353 6.65685L8.07136 0.292892ZM7.36426 30L8.36426 30L8.36426 1L7.36426 1L6.36426 1L6.36426 30L7.36426 30Z"
            fill="white" />
    </symbol>
    <symbol id="cross" width="21" height="21" viewBox="0 0 21 21" fill="none">
        <path d="M1.18187 1.06067L19.1819 19.0607M19.0605 1.06067L1.06055 19.0607" stroke="#00E0FF"
            stroke-width="3" />
    </symbol>

</svg>